# xmcd
# Track frame offsets:
# 150
# 12965
# 23792
# 36107
# 50652
# 64962
# 80555
# 95510
# 109677
# 123277
# 135275
# 150002
#
# Disc length: 2162 seconds
# Revision: 1
# Processed by: cddbd v1.5.2PL0 Copyright (c) Steve Scherf et al.
# Submitted via: VisiTrax 2.11.3.279 - For more info visit www.synapsa.com
#
DISCID=8c08700c
DTITLE=Slim Dusty - Rodeo Riders
DYEAR=1972
DGENRE=Australian Country
TTITLE0=Rough Riders
TTITLE1=Old Riders In The Grandstand
TTITLE2=Mareeba's Rodeo Song
TTITLE3=Rope And Saddle Blues
TTITLE4=Rodeo Riders
TTITLE5=Not Too Much To Show
TTITLE6=Cattle Camp Reverie
TTITLE7=The Battle With The Roan
TTITLE8=Stock Horses
TTITLE9=Isa Rodeo
TTITLE10=How Will I Go With Him Mate
TTITLE11=Whoa Bullocks Whoa
EXTD=1996 EMI Music Australia
EXTT0=
EXTT1=
EXTT2=
EXTT3=
EXTT4=
EXTT5=
EXTT6=
EXTT7=
EXTT8=
EXTT9=
EXTT10=
EXTT11=
PLAYORDER=
